<svg xmlns="http://www.w3.org/2000/svg" xmlns:xlink="http://www.w3.org/1999/xlink" viewBox="0 0 1366 800.67"><defs><style>.cls-1{fill:url(#Degradado_sin_nombre_3);}.cls-2{fill:url(#Degradado_sin_nombre_3-2);}</style><linearGradient id="Degradado_sin_nombre_3" x1="185.36" y1="188.6" x2="1441.01" y2="872.2" gradientUnits="userSpaceOnUse"><stop offset="0.09" stop-color="#002988"/><stop offset="0.4" stop-color="#5a257a"/><stop offset="0.69" stop-color="#a7216e"/><stop offset="0.9" stop-color="#d71f66"/><stop offset="1" stop-color="#e91e63"/></linearGradient><linearGradient id="Degradado_sin_nombre_3-2" x1="31.52" y1="320.05" x2="1270.25" y2="779" xlink:href="#Degradado_sin_nombre_3"/></defs><title>bg fold2</title><g id="Capa_2" data-name="Capa 2"><g id="Capa_1-2" data-name="Capa 1"><path id="mascara_gold_1" data-name="mascara gold 1" class="cls-1" d="M1366,800.67V118.38s-230.64,159.16-712.75,0C163.47-43.3,50.66,1.32,0,20.31V800.67Z"/><path class="cls-2" d="M668.93,265.86c-69.65-85.44-39.12-69.51,21.16-82.52,15.85-2.42,30.71-2.82,112.22-22.43l-3.55-1.29c-8.08-2.93-16.59-4.13-24.78-6.69a43.13,43.13,0,0,1-10.31-4.47c-30.32,4.6-59.07,8.65-80.1,10.49C513.72,170,409.36,132.13,347,52.5c-.36-.6-.61-1-1-1.53,0,.09-.06,0-.09.05a151.21,151.21,0,0,1-14.53-23.41H1.74V297.19c38.94-3.55,75.53,1.34,109,15.06.55.2,1,.49,1.58.73l0,0c88.07,40.46,146.57,147.9,79.24,326.84-4,10.8-30.9,82.06-54.27,131.08-4.38,9.43-10.34,21-13.2,28.2h10.14c3.65-5.57,7.67-13.18,12.26-20C159.41,760,165.3,757,183.3,730.52c24.4-36.08,43.84-60.38,63.11-59.26,21.49.93,58,22.52,96,102.91,5.74,12,9.48,19.78,12,24.9h20.4c-30-87.59-53-157.46-54.62-160.37-.05.08-.11,0-.15.19-73.38-186.21-75.58-309.45-7.31-393,62.95-70.71,191.68-85.83,333.42,20.55A440.16,440.16,0,0,1,689,304.83s20.38,19.72,37.55,36.76c13,12.79,15.08,15.37,15,15.28,1.46-1,1.25-4.74-8-17C707.3,305.57,676.32,275,668.93,265.86Z"/></g></g></svg>